PathFileType	4	(X/Y/Z)	C:\Users\86182\Documents\cortex\Trimmed_M3_L12.trc
DataRate	CameraRate	NumFrames	NumMarkers	Units	OrigDataRate	OrigDataStartFrame	OrigNumFrames
100.00	100.00	       144	2	mm	100.00	1	       901
Frame#	Time	gripper			box			
		X1	Y1	Z1	X2	Y2	Z2	

1	0.000	274.71042	148.71048	192.90817	277.70618	146.65059	57.40833	
2	0.010	274.71979	148.71686	192.92227	277.69672	146.66502	57.40469	
3	0.020	274.66525	148.72029	192.90941	277.70618	146.65059	57.40833	
4	0.030	274.73682	148.71759	192.91924	277.70609	146.66325	57.39944	
5	0.040	274.71960	148.71088	192.91202	277.72955	146.64613	57.39523	
6	0.050	274.67365	148.71858	192.90933	277.71545	146.64880	57.40312	
7	0.060	274.74765	148.71423	192.92741	277.73425	146.64523	57.39258	
8	0.070	274.69876	148.71338	192.90909	277.71545	146.64880	57.40312	
9	0.080	274.69681	148.71288	192.90753	277.74841	146.64255	57.38464	
10	0.090	274.71017	148.72023	192.92474	277.75314	146.64165	57.38200	
11	0.100	274.66211	148.72141	192.91022	277.72955	146.64613	57.39523	
12	0.110	274.70844	148.70998	192.90660	277.70148	146.65146	57.41095	
13	0.120	274.70450	148.70895	192.90347	277.70511	146.66092	57.40176	
14	0.130	274.67267	148.72449	192.90884	277.72012	146.64792	57.40049	
15	0.140	274.72748	148.71294	192.91823	277.73239	146.65320	57.38825	
16	0.150	274.71118	148.71265	192.91211	277.75314	146.64165	57.38200	
17	0.160	274.69910	148.71933	192.91934	277.75314	146.64165	57.38200	
18	0.170	274.71680	148.72392	192.93329	277.73425	146.64523	57.39258	
19	0.180	274.69876	148.71338	192.90909	277.70148	146.65146	57.41095	
20	0.190	274.69681	148.71288	192.90753	277.70886	146.65768	57.40144	
21	0.200	274.69461	148.72208	192.92256	277.69687	146.65234	57.41354	
22	0.210	274.66843	148.71918	192.90858	277.70618	146.65059	57.40833	
23	0.220	274.70694	148.70561	192.89868	277.73425	146.64523	57.39258	
24	0.230	274.68112	148.72443	192.92191	277.71262	146.65443	57.40113	
25	0.240	274.68918	148.71675	192.91154	277.70795	146.65532	57.40376	
26	0.250	274.70004	148.71173	192.90669	277.75314	146.64165	57.38200	
27	0.260	274.71014	148.70448	192.89786	277.72491	146.65967	57.38889	
28	0.270	274.68442	148.71355	192.90448	277.74368	146.64345	57.38731	
29	0.280	274.71490	148.70769	192.90494	277.70795	146.65532	57.40376	
30	0.290	274.67917	148.72392	192.92033	277.70148	146.65146	57.41095	
31	0.300	274.67044	148.71971	192.91016	277.70618	146.65059	57.40833	
32	0.310	274.70547	148.71709	192.91771	277.74368	146.64345	57.38731	
33	0.320	274.68661	148.72972	192.93286	277.72482	146.64703	57.39786	
34	0.330	274.66809	148.72298	192.91490	277.75314	146.64165	57.38200	
35	0.340	274.68631	148.72383	192.92264	277.75314	146.64165	57.38200	
36	0.350	274.66882	148.72511	192.91885	277.71078	146.64970	57.40574	
37	0.360	274.68759	148.71243	192.90366	277.74841	146.64255	57.38464	
38	0.370	274.71191	148.71481	192.91605	277.72482	146.64703	57.39786	
39	0.380	274.64944	148.72586	192.91347	277.73425	146.64523	57.39258	
40	0.390	274.66211	148.72141	192.91022	277.72482	146.64703	57.39786	
41	0.400	274.70276	148.71442	192.91222	277.68005	146.66063	57.41939	
42	0.410	274.70200	148.71223	192.90825	277.74841	146.64255	57.38464	
43	0.420	274.66843	148.71918	192.90858	277.72012	146.64792	57.40049	
44	0.430	274.71136	148.71861	192.92236	277.72482	146.64703	57.39786	
45	0.440	274.67682	148.71747	192.90851	277.73898	146.64433	57.38993	
46	0.450	274.71060	148.71645	192.91844	277.75314	146.64165	57.38200	
47	0.460	274.70645	148.72348	192.91879	277.69205	146.66592	57.40731	
48	0.470	274.66846	148.72888	192.92517	277.72012	146.64792	57.40049	
49	0.480	274.70544	148.72939	192.91833	277.72955	146.64613	57.39523	
50	0.490	274.69495	148.72803	192.93277	277.72012	146.64792	57.40049	
51	0.500	274.70572	148.70729	192.90108	277.75314	146.64165	57.38200	
52	0.510	274.70300	148.72032	192.92247	277.72482	146.64703	57.39786	
53	0.520	274.68597	148.71788	192.91237	277.75314	146.64165	57.38200	
54	0.530	274.70032	148.71767	192.91698	277.69220	146.65323	57.41616	
55	0.540	274.70938	148.71808	192.92084	277.75314	146.64165	57.38200	
56	0.550	274.71515	148.71368	192.91522	277.74841	146.64255	57.38464	
57	0.560	274.67917	148.72392	192.92033	277.73898	146.64433	57.38993	
58	0.570	274.72510	148.72217	192.93321	277.71545	146.64880	57.40312	
59	0.580	274.72803	148.70915	192.91190	277.75314	146.64165	57.38200	
60	0.590	274.73193	148.71014	192.91502	277.72482	146.64703	57.39786	
61	0.600	274.67554	148.72800	192.92091	277.75314	146.64165	57.38200	
62	0.610	274.69614	148.72554	192.92387	277.72482	146.64703	57.39786	
63	0.620	274.72095	148.72836	192.92708	277.73898	146.64433	57.38993	
64	0.630	274.69589	148.72046	192.92017	277.74368	146.64345	57.38731	
65	0.640	274.68234	148.72279	192.91953	277.71545	146.64880	57.40312	
66	0.650	274.71405	148.71959	192.91478	277.66000	146.65933	57.43420	
67	0.660	274.68555	148.72166	192.91870	277.71078	146.64970	57.40574	
68	0.670	274.68066	148.72818	192.92821	277.75314	146.64165	57.38200	
69	0.680	274.72763	148.71889	192.92847	277.75314	146.64165	57.38200	
70	0.690	274.69604	148.71069	192.90356	277.69687	146.65234	57.41354	
71	0.700	274.70178	148.72198	192.92484	277.71545	146.64880	57.40312	
72	0.710	274.68872	148.72055	192.91788	277.75314	146.64165	57.38200	
73	0.720	274.68121	148.71468	192.90530	277.68756	146.65411	57.41875	
74	0.730	274.70648	148.70946	192.90504	277.70618	146.65059	57.40833	
75	0.740	274.68704	148.72595	192.92657	277.72482	146.64703	57.39786	
76	0.750	274.67719	148.72340	192.91879	277.70148	146.65146	57.41095	
77	0.760	274.68442	148.71355	192.90448	277.68756	146.65411	57.41875	
78	0.770	274.71335	148.71912	192.92393	277.66919	146.65759	57.42907	
79	0.780	274.70694	148.70561	192.89868	277.68756	146.65411	57.41875	
80	0.790	274.69403	148.71016	192.90199	277.70148	146.65146	57.41095	
81	0.800	274.71136	148.71861	192.92236	277.69220	146.65323	57.41616	
82	0.810	274.66614	148.72246	192.91333	277.70148	146.65146	57.41095	
83	0.820	274.68442	148.71355	192.90448	277.74841	146.64255	57.38464	
84	0.830	274.70081	148.72870	192.93092	277.70618	146.65059	57.40833	
85	0.840	274.66092	148.72307	192.91260	277.68756	146.65411	57.41875	
86	0.850	274.68631	148.72383	192.92264	277.73898	146.64433	57.38993	
87	0.860	274.71017	148.72023	192.92474	277.70148	146.65146	57.41095	
88	0.870	274.68442	148.71355	192.90448	277.72482	146.64703	57.39786	
89	0.880	274.71729	148.72015	192.92702	277.71545	146.64880	57.40312	
90	0.890	274.70450	148.72466	192.93031	277.75314	146.64165	57.38200	
91	0.900	274.71216	148.70502	192.89941	277.73898	146.64433	57.38993	
92	0.910	274.70795	148.71378	192.91293	277.72012	146.64792	57.40049	
93	0.920	274.67480	148.71693	192.90695	277.72955	146.64613	57.39523	
94	0.930	274.67123	148.72186	192.91409	277.68298	146.65498	57.42133	
95	0.940	274.71979	148.71686	192.92227	277.74841	146.64255	57.38464	
96	0.950	274.69403	148.71016	192.90199	277.72955	146.64613	57.39523	
97	0.960	274.68277	148.71901	192.91319	277.72482	146.64703	57.39786	
98	0.970	274.69144	148.72319	192.92337	277.73898	146.64433	57.38993	
99	0.980	274.67480	148.71693	192.90695	277.71545	146.64880	57.40312	
100	0.990	274.71317	148.71315	192.91368	277.71545	146.64880	57.40312	
101	1.000	274.70795	148.71378	192.91293	277.75314	146.64165	57.38200	
102	1.010	274.67245	148.72025	192.91171	277.73898	146.64433	57.38993	
103	1.020	274.70740	148.71758	192.91927	277.73898	146.64433	57.38993	
104	1.030	274.69080	148.71130	192.90283	277.74841	146.64255	57.38464	
105	1.040	274.66525	148.72029	192.90941	277.71545	146.64880	57.40312	
106	1.050	274.72830	148.72104	192.93239	277.72012	146.64792	57.40049	
107	1.060	274.72211	148.70760	192.90724	277.75314	146.64165	57.38200	
108	1.070	274.72406	148.70811	192.90880	277.72955	146.64613	57.39523	
109	1.080	274.71259	148.71695	192.92001	277.72482	146.64703	57.39786	
110	1.090	274.65259	148.72476	192.91266	277.74841	146.64255	57.38464	
111	1.100	274.74066	148.72029	192.93535	277.70148	146.65146	57.41095	
112	1.110	274.66296	148.73322	192.93069	277.67831	146.65587	57.42393	
113	1.120	274.64316	148.72807	192.91508	277.67831	146.65587	57.42393	
114	1.130	274.66653	148.73802	192.94008	277.63800	146.66298	57.44706	
115	1.140	274.66653	148.73802	192.94008	277.58774	146.66914	57.47845	
116	1.150	274.62613	148.71666	192.95848	277.51801	146.66069	57.49247	
117	1.160	274.57376	148.69913	193.01993	277.51242	146.66455	57.49809	
118	1.170	274.57278	148.70270	193.02473	277.48633	146.64742	57.48237	
119	1.180	274.52228	148.68843	193.06348	277.48331	146.57349	57.48693	
120	1.190	274.39026	148.65385	193.23030	277.37378	146.56879	57.55387	
121	1.200	274.35422	148.69283	193.30762	277.29968	146.59569	57.63026	
122	1.210	274.25507	148.73079	193.45615	277.28546	146.66130	57.67701	
123	1.220	274.20538	148.75266	193.54416	277.27579	146.61465	57.81628	
124	1.230	274.18103	148.78574	193.61969	277.34323	146.66031	58.01940	
125	1.240	274.30704	148.79169	193.81407	277.43155	146.66418	58.03463	
126	1.250	273.96857	148.85414	194.18082	277.40146	146.56186	58.29962	
127	1.260	274.08386	148.71858	194.23212	277.47809	146.53059	58.50391	
128	1.270	274.36258	148.68304	194.56631	277.56598	146.61079	58.67277	
129	1.280	274.56360	148.64816	194.87065	277.59546	146.52898	58.83355	
130	1.290	274.77621	148.46628	194.91531	277.64240	146.55171	59.23884	
131	1.300	274.72742	148.48114	195.30614	277.55444	146.74387	59.78754	
132	1.310	273.96661	148.81285	195.96132	277.51193	146.67343	60.16128	
133	1.320	274.33725	148.85428	196.40198	277.42120	146.77243	60.49132	
134	1.330	274.45261	148.81755	196.59505	277.55597	146.60608	60.77969	
135	1.340	274.90933	148.59908	196.94220	277.71152	146.59584	61.09524	
136	1.350	274.41025	148.75154	197.33926	277.52277	146.68842	61.55414	
137	1.360	274.26816	148.88889	198.03964	277.39948	146.85152	62.25700	
138	1.370	274.28821	148.95589	198.31876	277.37042	146.85023	62.71005	
139	1.380	274.28525	148.80399	198.61041	277.28537	146.87032	62.97130	
140	1.390	274.26242	148.89302	199.08362	277.42838	146.82463	63.33625	
141	1.400	274.42245	148.84761	199.61089	277.55731	146.87364	63.74155	
142	1.410	274.17267	149.03342	200.13747	277.34167	146.91098	64.30962	
143	1.420	274.33353	148.97260	200.49176	277.26508	146.92780	64.99824	
144	1.430	274.36255	148.96149	201.02785	277.37180	147.01077	65.27713	
